{
  "accessors": [
    {
      "bufferView": 2,
      "componentType": 5126,
      "count": 18740,
      "max": [
        1.1081587076187134,
        1.6447339057922363,
        1.0533620119094849
      ],
      "min": [
        -1.1076313257217407,
        -0.5989754796028137,
        -0.6822856068611145
      ],
      "type": "VEC3"
    },
    {
      "bufferView": 2,
      "byteOffset": 224880,
      "componentType": 5126,
      "count": 18740,
      "max": [
        0.9999696016311646,
        0.9998621940612793,
        0.9999737739562988
      ],
      "min": [
        -0.9999836683273315,
        -0.9997813105583191,
        -0.9996666312217712
      ],
      "type": "VEC3"
    },
    {
      "bufferView": 3,
      "componentType": 5126,
      "count": 18740,
      "max": [
        0.9333333373069763,
        0.45490196347236633,
        0.3960784375667572,
        1.0
      ],
      "min": [
        0.5098039507865906,
        0.007843137718737125,
        0.007843137718737125,
        1.0
      ],
      "type": "VEC4"
    },
    {
      "bufferView": 0,
      "componentType": 5125,
      "count": 112428,
      "type": "SCALAR"
    },
    {
      "bufferView": 2,
      "byteOffset": 449760,
      "componentType": 5126,
      "count": 24357,
      "max": [
        1.1814239025115967,
        1.7441558837890625,
        0.8861129879951477
      ],
      "min": [
        -1.123902678489685,
        -2.30763840675354,
        -1.599982500076294
      ],
      "type": "VEC3"
    },
    {
      "bufferView": 2,
      "byteOffset": 742044,
      "componentType": 5126,
      "count": 24357,
      "max": [
        0.9999749660491943,
        0.9999661445617676,
        0.9999816417694092
      ],
      "min": [
        -0.9999692440032959,
        -0.9999604225158691,
        -0.9999899864196777
      ],
      "type": "VEC3"
    },
    {
      "bufferView": 3,
      "byteOffset": 299840,
      "componentType": 5126,
      "count": 24357,
      "max": [
        0.6392157077789307,
        0.501960813999176,
        0.3921568691730499,
        1.0
      ],
      "min": [
        0.3607843220233917,
        0.24313725531101227,
        0.1568627506494522,
        1.0
      ],
      "type": "VEC4"
    },
    {
      "bufferView": 0,
      "byteOffset": 449712,
      "componentType": 5125,
      "count": 141186,
      "type": "SCALAR"
    },
    {
      "bufferView": 2,
      "byteOffset": 1034328,
      "componentType": 5126,
      "count": 320,
      "max": [
        0.5618473291397095,
        0.8355252146720886,
        0.8203120231628418
      ],
      "min": [
        -0.5618470311164856,
        0.7021961212158203,
        0.6531051397323608
      ],
      "type": "VEC3"
    },
    {
      "bufferView": 2,
      "byteOffset": 1038168,
      "componentType": 5126,
      "count": 320,
      "max": [
        0.5437133312225342,
        0.11899488419294357,
        -0.8390206098556519
      ],
      "min": [
        -0.5437133312225342,
        -0.03950045257806778,
        -0.9732580780982971
      ],
      "type": "VEC3"
    },
    {
      "bufferView": 1,
      "componentType": 5126,
      "count": 320,
      "max": [
        0.9462435841560364,
        0.792637825012207
      ],
      "min": [
        0.09881572425365448,
        0.04069715738296509
      ],
      "type": "VEC2"
    },
    {
      "bufferView": 0,
      "byteOffset": 1014456,
      "componentType": 5125,
      "count": 480,
      "type": "SCALAR"
    },
    {
      "bufferView": 2,
      "byteOffset": 1042008,
      "componentType": 5126,
      "count": 436,
      "max": [
        0.5542310476303101,
        0.5939905047416687,
        0.7389265298843384
      ],
      "min": [
        -0.5542306900024414,
        0.49976181983947754,
        0.6208137273788452
      ],
      "type": "VEC3"
    },
    {
      "bufferView": 2,
      "byteOffset": 1047240,
      "componentType": 5126,
      "count": 436,
      "max": [
        0.9968477487564087,
        0.859761655330658,
        0.9301014542579651
      ],
      "min": [
        -0.9968404769897461,
        -0.9456188678741455,
        -0.9360113143920898
      ],
      "type": "VEC3"
    },
    {
      "bufferView": 1,
      "byteOffset": 2560,
      "componentType": 5126,
      "count": 436,
      "max": [
        0.0,
        0.9583333134651184
      ],
      "min": [
        0.0,
        0.04166656732559204
      ],
      "type": "VEC2"
    },
    {
      "bufferView": 0,
      "byteOffset": 1016376,
      "componentType": 5125,
      "count": 2592,
      "type": "SCALAR"
    },
    {
      "bufferView": 2,
      "byteOffset": 1052472,
      "componentType": 5126,
      "count": 628,
      "max": [
        0.5007304549217224,
        0.5211127400398254,
        0.7477524280548096
      ],
      "min": [
        -0.500730037689209,
        0.4364415407180786,
        0.6185011267662048
      ],
      "type": "VEC3"
    },
    {
      "bufferView": 2,
      "byteOffset": 1060008,
      "componentType": 5126,
      "count": 628,
      "max": [
        0.9878993034362793,
        0.9930797219276428,
        0.9954320192337036
      ],
      "min": [
        -0.9878993034362793,
        -0.9818096160888672,
        -0.9991479516029358
      ],
      "type": "VEC3"
    },
    {
      "bufferView": 1,
      "byteOffset": 6048,
      "componentType": 5126,
      "count": 628,
      "max": [
        0.0,
        0.9583333134651184
      ],
      "min": [
        0.0,
        0.04166656732559204
      ],
      "type": "VEC2"
    },
    {
      "bufferView": 0,
      "byteOffset": 1026744,
      "componentType": 5125,
      "count": 3744,
      "type": "SCALAR"
    },
    {
      "bufferView": 2,
      "byteOffset": 1067544,
      "componentType": 5126,
      "count": 64738,
      "max": [
        0.4756782650947571,
        0.665497362613678,
        0.7270225882530212
      ],
      "min": [
        -0.4756777882575989,
        0.36387214064598083,
        0.42223620414733887
      ],
      "type": "VEC3"
    },
    {
      "bufferView": 2,
      "byteOffset": 1844400,
      "componentType": 5126,
      "count": 64738,
      "max": [
        1.0,
        1.0,
        1.0
      ],
      "min": [
        -1.0,
        -1.0,
        -1.0
      ],
      "type": "VEC3"
    },
    {
      "bufferView": 3,
      "byteOffset": 689552,
      "componentType": 5126,
      "count": 64738,
      "max": [
        1.0,
        1.0,
        1.0,
        1.0
      ],
      "min": [
        0.0,
        0.0,
        0.0,
        1.0
      ],
      "type": "VEC4"
    },
    {
      "bufferView": 1,
      "byteOffset": 11072,
      "componentType": 5126,
      "count": 64738,
      "max": [
        1.0000003576278687,
        1.0
      ],
      "min": [
        0.0,
        -2.384185791015625e-07
      ],
      "type": "VEC2"
    },
    {
      "bufferView": 0,
      "byteOffset": 1041720,
      "componentType": 5125,
      "count": 380928,
      "type": "SCALAR"
    }
  ],
  "asset": {
    "extras": {
      "author": "stylo0 (https://sketchfab.com/stylo0)",
      "license": "SKETCHFAB Standard (https://sketchfab.com/licenses)",
      "source": "https://sketchfab.com/3d-models/speed-sculpt-face-2-elf-girl-d1758122b15b4200b57e16ce488fc6ea",
      "title": "Speed Sculpt face 2 elf girl"
    },
    "generator": "Sketchfab-15.55.0",
    "version": "2.0"
  },
  "bufferViews": [
    {
      "buffer": 0,
      "byteLength": 2565432,
      "name": "floatBufferViews",
      "target": 34963
    },
    {
      "buffer": 0,
      "byteLength": 528976,
      "byteOffset": 2565432,
      "byteStride": 8,
      "name": "floatBufferViews",
      "target": 34962
    },
    {
      "buffer": 0,
      "byteLength": 2621256,
      "byteOffset": 3094408,
      "byteStride": 12,
      "name": "floatBufferViews",
      "target": 34962
    },
    {
      "buffer": 0,
      "byteLength": 1725360,
      "byteOffset": 5715664,
      "byteStride": 16,
      "name": "floatBufferViews",
      "target": 34962
    }
  ],
  "buffers": [
    {
      "byteLength": 7441024,
      "uri": "scene.bin"
    }
  ],
  "extensionsUsed": [
    "KHR_materials_specular"
  ],
  "materials": [
    {
      "doubleSided": true,
      "extensions": {
        "KHR_materials_specular": {
          "specularColorFactor": [
            1.0,
            1.0,
            1.0
          ],
          "specularFactor": 1.0
        }
      },
      "name": "Material.003",
      "pbrMetallicRoughness": {
        "metallicFactor": 0.0,
        "roughnessFactor": 0.523809
      }
    },
    {
      "doubleSided": true,
      "extensions": {
        "KHR_materials_specular": {
          "specularColorFactor": [
            1.0,
            1.0,
            1.0
          ],
          "specularFactor": 0.392857
        }
      },
      "name": "Material.002",
      "pbrMetallicRoughness": {
        "metallicFactor": 0.0,
        "roughnessFactor": 0.339286
      }
    },
    {
      "doubleSided": true,
      "name": "Material",
      "pbrMetallicRoughness": {
        "baseColorFactor": [
          0.0,
          0.0,
          0.0,
          1.0
        ],
        "metallicFactor": 0.0,
        "roughnessFactor": 0.718182
      }
    },
    {
      "doubleSided": true,
      "name": "Material.001",
      "pbrMetallicRoughness": {
        "baseColorFactor": [
          0.0,
          0.0,
          0.0,
          1.0
        ],
        "metallicFactor": 0.0,
        "roughnessFactor": 0.5
      }
    },
    {
      "doubleSided": true,
      "extensions": {
        "KHR_materials_specular": {
          "specularColorFactor": [
            1.0,
            1.0,
            1.0
          ],
          "specularFactor": 1.0
        }
      },
      "name": "Material.004",
      "pbrMetallicRoughness": {
        "metallicFactor": 0.0,
        "roughnessFactor": 0.0
      }
    }
  ],
  "meshes": [
    {
      "name": "Object_0",
      "primitives": [
        {
          "attributes": {
            "COLOR_0": 2,
            "NORMAL": 1,
            "POSITION": 0
          },
          "indices": 3,
          "material": 0,
          "mode": 4
        }
      ]
    },
    {
      "name": "Object_1",
      "primitives": [
        {
          "attributes": {
            "COLOR_0": 6,
            "NORMAL": 5,
            "POSITION": 4
          },
          "indices": 7,
          "material": 1,
          "mode": 4
        }
      ]
    },
    {
      "name": "Object_2",
      "primitives": [
        {
          "attributes": {
            "NORMAL": 9,
            "POSITION": 8,
            "TEXCOORD_0": 10
          },
          "indices": 11,
          "material": 2,
          "mode": 4
        }
      ]
    },
    {
      "name": "Object_3",
      "primitives": [
        {
          "attributes": {
            "NORMAL": 13,
            "POSITION": 12,
            "TEXCOORD_0": 14
          },
          "indices": 15,
          "material": 3,
          "mode": 4
        }
      ]
    },
    {
      "name": "Object_4",
      "primitives": [
        {
          "attributes": {
            "NORMAL": 17,
            "POSITION": 16,
            "TEXCOORD_0": 18
          },
          "indices": 19,
          "material": 3,
          "mode": 4
        }
      ]
    },
    {
      "name": "Object_5",
      "primitives": [
        {
          "attributes": {
            "COLOR_0": 22,
            "NORMAL": 21,
            "POSITION": 20,
            "TEXCOORD_0": 23
          },
          "indices": 24,
          "material": 4,
          "mode": 4
        }
      ]
    }
  ],
  "nodes": [
    {
      "children": [
        1
      ],
      "matrix": [
        1.0,
        0.0,
        0.0,
        0.0,
        0.0,
        2.220446049250313e-16,
        -1.0,
        0.0,
        0.0,
        1.0,
        2.220446049250313e-16,
        0.0,
        0.0,
        0.0,
        0.0,
        1.0
      ],
      "name": "Sketchfab_model"
    },
    {
      "children": [
        2
      ],
      "name": "root"
    },
    {
      "children": [
        3
      ],
      "matrix": [
        1.0,
        0.0,
        0.0,
        0.0,
        0.0,
        2.220446049250313e-16,
        1.0,
        0.0,
        0.0,
        -1.0,
        2.220446049250313e-16,
        0.0,
        0.0,
        0.0,
        0.0,
        1.0
      ],
      "name": "GLTF_SceneRootNode"
    },
    {
      "children": [
        4,
        5,
        7,
        9,
        11,
        13
      ],
      "name": "Speed Sculpt face 2 elf girl_5"
    },
    {
      "mesh": 0,
      "name": "Object_4"
    },
    {
      "children": [
        6
      ],
      "name": "hair_0"
    },
    {
      "mesh": 1,
      "name": "Object_6"
    },
    {
      "children": [
        8
      ],
      "name": "Plane_1"
    },
    {
      "mesh": 2,
      "name": "Object_8"
    },
    {
      "children": [
        10
      ],
      "name": "Plane.001_2"
    },
    {
      "mesh": 3,
      "name": "Object_10"
    },
    {
      "children": [
        12
      ],
      "name": "Plane.002_3"
    },
    {
      "mesh": 4,
      "name": "Object_12"
    },
    {
      "children": [
        14
      ],
      "name": "Sphere_4"
    },
    {
      "mesh": 5,
      "name": "Object_14"
    }
  ],
  "scene": 0,
  "scenes": [
    {
      "name": "Sketchfab_Scene",
      "nodes": [
        0
      ]
    }
  ]
}
